<svg xmlns="http://www.w3.org/2000/svg" viewBox="0 0 24 24" fill="currentColor" stroke="none">
  <ellipse cx="12" cy="3.9" rx="5.5" ry="1.6"/>
  <path d="M6.5 3.9v2.3c0 .88 2.46 1.6 5.5 1.6s5.5-.72 5.5-1.6V3.9Z"/>
  <path d="M6.5 7.5c0 .88 2.46 1.6 5.5 1.6s5.5-.72 5.5-1.6v1.9c0 .88-2.46 1.6-5.5 1.6s-5.5-.72-5.5-1.6Z"/>
  <path d="M6.5 10.7c0 .88 2.46 1.6 5.5 1.6s5.5-.72 5.5-1.6v1.9c0 .88-2.46 1.6-5.5 1.6s-5.5-.72-5.5-1.6Z"/>
  <path d="M3 14.4c2.7 1.15 5.75 1.75 9 1.75s6.3-.6 9-1.75c-1.1 3.9-4.5 5.8-9 5.8s-7.9-1.9-9-5.8Z"/>
  <path fill="none" stroke="currentColor" stroke-width="1.5" stroke-linecap="round" d="M3.6 21.8c1.4-1 2.8-1 4.2 0s2.8 1 4.2 0 2.8-1 4.2 0 2.8 1 4.2 0"/>
</svg>
