<svg xmlns="http://www.w3.org/2000/svg" viewBox="-1.00 5.00 280.47 45.14" width="280" height="45" role="img" aria-label="TupleBase">
  <g transform="translate(-9.00 -3.00) scale(2.2500)" fill="#E4E4E4"><circle cx="6.2" cy="6.2" r="2.2"/><circle cx="12" cy="6.2" r="2.2"/><circle cx="17.8" cy="6.2" r="2.2"/><rect x="4.75" y="10.55" width="14.5" height="2.9" rx="1.45" fill="none" stroke="#E4E4E4" stroke-width="1.5"/><rect x="4.75" y="16.35" width="14.5" height="2.9" rx="1.45" fill="none" stroke="#E4E4E4" stroke-width="1.5"/></g>
  <path fill="#E4E4E4" d="M62.97 40.00V12.49H53.16V8.00H77.72V12.49H67.91V40.00Z M87.59 40.40Q85.04 40.40 83.03 39.26Q81.03 38.12 79.89 36.01Q78.75 33.90 78.75 31.02V17.49H83.46V30.66Q83.46 33.58 84.92 34.98Q86.37 36.38 88.96 36.38Q91.88 36.38 93.63 34.45Q95.39 32.51 95.39 28.86V17.49H100.09V40.00H95.48V36.63H94.75Q94.11 38.00 92.47 39.20Q90.83 40.40 87.59 40.40Z M107.05 49.14V17.49H111.67V20.69H112.39Q113.23 19.19 115.02 18.02Q116.80 16.85 120.07 16.85Q122.89 16.85 125.25 18.21Q127.62 19.57 129.04 22.16Q130.47 24.75 130.47 28.41V29.08Q130.47 32.72 129.05 35.31Q127.63 37.91 125.27 39.28Q122.91 40.64 120.07 40.64Q117.88 40.64 116.38 40.10Q114.87 39.55 113.95 38.69Q113.02 37.84 112.48 36.95H111.76V49.14ZM118.72 36.51Q121.80 36.51 123.76 34.55Q125.73 32.58 125.73 28.96V28.53Q125.73 24.90 123.75 22.94Q121.77 20.98 118.72 20.98Q115.68 20.98 113.69 22.94Q111.70 24.90 111.70 28.53V28.96Q111.70 32.58 113.69 34.55Q115.68 36.51 118.72 36.51Z M136.36 40.00V8.00H141.06V40.00Z M158.36 40.64Q154.96 40.64 152.39 39.20Q149.83 37.76 148.39 35.14Q146.96 32.52 146.96 29.02V28.47Q146.96 24.95 148.38 22.34Q149.80 19.73 152.33 18.29Q154.87 16.85 158.19 16.85Q161.44 16.85 163.89 18.27Q166.33 19.69 167.71 22.25Q169.08 24.82 169.08 28.26V30.05H151.73Q151.83 33.02 153.74 34.76Q155.65 36.51 158.48 36.51Q161.14 36.51 162.48 35.33Q163.83 34.15 164.53 32.60L168.46 34.59Q167.80 35.89 166.59 37.30Q165.38 38.71 163.40 39.67Q161.42 40.64 158.36 40.64ZM151.77 26.43H164.30Q164.11 23.88 162.46 22.43Q160.80 20.98 158.16 20.98Q155.47 20.98 153.81 22.43Q152.16 23.88 151.77 26.43Z M173.40 40.00V35.63H177.74V12.37H173.40V8.00H189.65Q192.51 8.00 194.68 8.99Q196.84 9.98 198.05 11.79Q199.26 13.59 199.26 16.06V16.48Q199.26 18.69 198.43 20.11Q197.59 21.53 196.43 22.31Q195.27 23.09 194.20 23.42V24.15Q195.27 24.43 196.48 25.21Q197.69 26.00 198.54 27.43Q199.38 28.86 199.38 31.13V31.59Q199.38 34.23 198.14 36.12Q196.90 38.00 194.73 39.00Q192.56 40.00 189.72 40.00ZM182.68 35.51H189.15Q191.63 35.51 193.03 34.32Q194.44 33.14 194.44 31.04V30.61Q194.44 28.51 193.05 27.32Q191.66 26.14 189.15 26.14H182.68ZM182.68 21.65H189.16Q191.48 21.65 192.90 20.47Q194.32 19.29 194.32 17.30V16.84Q194.32 14.82 192.91 13.65Q191.51 12.49 189.16 12.49H182.68Z M212.03 40.64Q209.63 40.64 207.72 39.81Q205.81 38.98 204.70 37.38Q203.59 35.78 203.59 33.50Q203.59 31.20 204.70 29.66Q205.81 28.13 207.76 27.35Q209.71 26.57 212.17 26.57H219.06V25.12Q219.06 23.13 217.86 21.94Q216.67 20.74 214.20 20.74Q211.78 20.74 210.49 21.88Q209.21 23.03 208.80 24.88L204.42 23.45Q204.97 21.64 206.17 20.15Q207.38 18.66 209.39 17.75Q211.40 16.85 214.26 16.85Q218.64 16.85 221.14 19.07Q223.65 21.29 223.65 25.43V34.71Q223.65 36.08 224.93 36.08H226.87V40.00H223.35Q221.75 40.00 220.75 39.17Q219.75 38.34 219.75 36.93V36.79H219.02Q218.70 37.50 217.95 38.42Q217.21 39.33 215.79 39.99Q214.37 40.64 212.03 40.64ZM212.74 36.75Q215.55 36.75 217.31 35.12Q219.06 33.50 219.06 30.69V30.20H212.45Q210.58 30.20 209.44 31.00Q208.29 31.81 208.29 33.36Q208.29 34.92 209.48 35.83Q210.67 36.75 212.74 36.75Z M240.47 40.64Q236.18 40.64 233.34 38.72Q230.49 36.80 229.88 32.93L234.27 31.86Q234.61 33.75 235.49 34.83Q236.37 35.92 237.67 36.38Q238.97 36.84 240.47 36.84Q242.74 36.84 243.94 35.98Q245.15 35.13 245.15 33.76Q245.15 32.37 244.01 31.73Q242.86 31.09 240.64 30.69L239.07 30.41Q236.79 29.99 234.92 29.20Q233.05 28.42 231.93 27.05Q230.82 25.68 230.82 23.55Q230.82 20.35 233.21 18.60Q235.61 16.85 239.54 16.85Q243.33 16.85 245.77 18.55Q248.22 20.24 248.93 23.16L244.56 24.43Q244.16 22.37 242.83 21.51Q241.50 20.65 239.54 20.65Q237.59 20.65 236.50 21.36Q235.40 22.06 235.40 23.37Q235.40 24.73 236.48 25.36Q237.55 26.00 239.39 26.32L240.96 26.60Q243.43 27.03 245.42 27.76Q247.41 28.50 248.57 29.86Q249.74 31.21 249.74 33.49Q249.74 36.91 247.23 38.78Q244.72 40.64 240.47 40.64Z M265.56 40.64Q262.16 40.64 259.59 39.20Q257.03 37.76 255.59 35.14Q254.16 32.52 254.16 29.02V28.47Q254.16 24.95 255.58 22.34Q257.00 19.73 259.53 18.29Q262.07 16.85 265.39 16.85Q268.64 16.85 271.09 18.27Q273.53 19.69 274.91 22.25Q276.28 24.82 276.28 28.26V30.05H258.93Q259.03 33.02 260.94 34.76Q262.85 36.51 265.68 36.51Q268.34 36.51 269.68 35.33Q271.03 34.15 271.73 32.60L275.66 34.59Q275.00 35.89 273.79 37.30Q272.58 38.71 270.60 39.67Q268.62 40.64 265.56 40.64ZM258.97 26.43H271.50Q271.31 23.88 269.66 22.43Q268.00 20.98 265.36 20.98Q262.67 20.98 261.01 22.43Q259.36 23.88 258.97 26.43Z"/>
</svg>
